<?xml version="1.0" standalone="no"?>
<!DOCTYPE svg PUBLIC "-//W3C//DTD SVG 20010904//EN"
 "http://www.w3.org/TR/2001/REC-SVG-20010904/DTD/svg10.dtd">
<svg version="1.0" xmlns="http://www.w3.org/2000/svg"
 width="1280.000000pt" height="1280.000000pt" viewBox="0 0 1280.000000 1280.000000"
 preserveAspectRatio="xMidYMid meet">
<metadata>
Created by potrace 1.11, written by Peter Selinger 2001-2013
</metadata>
<g transform="translate(0.000000,1280.000000) scale(0.100000,-0.100000)"
fill="#000000" stroke="none">
<path d="M6106 12763 c-4 -5 -29 -9 -54 -10 -132 -4 -153 -6 -158 -14 -3 -5
-14 -5 -24 1 -10 6 -21 6 -24 2 -2 -4 -25 -7 -50 -6 -25 1 -44 -1 -42 -5 2 -3
-15 -6 -37 -5 -23 0 -48 -4 -54 -9 -9 -6 -13 -5 -13 2 0 7 -5 9 -12 5 -7 -4
-24 -9 -38 -10 -44 -4 -90 -13 -100 -19 -6 -3 -10 -1 -10 6 0 8 -4 8 -12 2 -7
-6 -21 -9 -30 -8 -10 2 -18 -1 -18 -6 0 -4 -7 -6 -15 -3 -8 4 -21 2 -28 -3 -6
-5 -27 -8 -44 -8 -18 1 -33 -1 -33 -5 0 -3 -12 -5 -27 -5 -16 1 -32 -1 -38 -4
-5 -3 -19 -6 -30 -8 -32 -3 -49 -8 -64 -17 -10 -7 -12 -5 -6 5 6 11 5 12 -6 2
-7 -7 -28 -13 -45 -13 -18 0 -36 -4 -39 -10 -3 -5 -11 -10 -16 -10 -6 0 -7 5
-3 11 3 6 -4 5 -17 -3 -13 -8 -34 -14 -46 -13 -13 1 -23 -2 -23 -6 0 -5 -3 -8
-7 -7 -5 1 -26 -3 -48 -7 -56 -13 -55 -12 -57 -15 -2 -1 -12 -4 -23 -6 -11 -3
-27 -6 -35 -9 -8 -2 -23 -4 -33 -4 -10 -1 -16 -4 -14 -8 3 -5 -5 -9 -16 -9
-47 -4 -67 -9 -67 -17 0 -5 -9 -7 -20 -4 -11 3 -20 0 -20 -6 0 -6 -3 -7 -7 -4
-3 4 -13 1 -21 -6 -13 -9 -14 -9 -8 0 5 9 2 11 -8 7 -9 -3 -16 -10 -16 -14 0
-4 -10 -7 -22 -6 -13 1 -25 -2 -28 -6 -3 -4 -16 -9 -28 -11 -12 -2 -25 -6 -28
-10 -4 -4 -15 -7 -25 -7 -9 0 -20 -6 -22 -12 -4 -10 -6 -9 -6 1 -1 11 -6 9
-22 -5 -12 -10 -23 -18 -25 -16 -10 6 -35 1 -30 -7 3 -4 -6 -7 -19 -5 -14 1
-27 -2 -31 -7 -3 -5 -14 -9 -25 -9 -11 0 -18 -4 -14 -9 3 -6 -4 -8 -15 -6 -11
2 -20 -1 -20 -7 0 -5 -7 -8 -15 -4 -8 3 -15 1 -15 -4 0 -6 -12 -10 -26 -10
-14 0 -22 -4 -19 -10 3 -6 -1 -7 -9 -4 -9 3 -16 2 -16 -3 0 -9 -6 -11 -50 -15
-11 -1 -20 -8 -20 -15 0 -6 -9 -10 -20 -8 -11 2 -20 -1 -20 -6 0 -6 -4 -7 -10
-4 -5 3 -10 2 -10 -2 0 -5 -20 -15 -45 -22 -25 -7 -45 -18 -45 -23 0 -6 -7 -8
-15 -4 -8 3 -15 1 -15 -5 0 -6 -4 -8 -9 -4 -6 3 -14 -3 -20 -12 -6 -10 -11
-14 -11 -9 0 5 -8 2 -17 -5 -14 -12 -16 -12 -9 1 4 9 2 8 -7 -2 -8 -10 -17
-14 -21 -10 -4 4 -14 -2 -22 -12 -9 -13 -14 -15 -14 -6 0 10 -4 9 -13 -4 -7
-9 -22 -18 -35 -19 -12 0 -22 -7 -22 -15 0 -7 -4 -11 -9 -7 -6 3 -24 -3 -42
-14 -18 -11 -36 -18 -41 -15 -4 3 -8 0 -8 -6 0 -6 -4 -8 -10 -5 -5 3 -10 0
-10 -8 0 -9 -9 -13 -26 -11 -14 1 -23 0 -20 -3 8 -9 -26 -32 -46 -33 -10 0
-18 -5 -18 -12 0 -6 -3 -9 -6 -5 -4 3 -13 0 -21 -8 -8 -8 -23 -15 -34 -15 -11
0 -17 -4 -14 -10 6 -9 -8 -14 -27 -11 -5 0 -8 -4 -8 -10 0 -6 -7 -8 -16 -5 -8
3 -12 2 -9 -4 3 -5 -6 -12 -20 -16 -14 -3 -25 -10 -25 -15 0 -5 -6 -9 -14 -9
-7 0 -19 -7 -26 -15 -7 -8 -16 -12 -21 -10 -4 3 -12 -3 -18 -12 -6 -10 -11
-14 -11 -9 0 4 -15 -3 -34 -18 -19 -14 -42 -26 -51 -26 -9 0 -13 -4 -10 -10 6
-9 -8 -14 -27 -11 -5 0 -8 -7 -8 -16 0 -15 -2 -16 -10 -3 -7 11 -10 11 -10 2
0 -7 -15 -19 -34 -27 -18 -8 -36 -21 -39 -30 -4 -8 -13 -15 -22 -15 -8 0 -15
-5 -15 -11 0 -5 -4 -8 -9 -4 -5 3 -17 -5 -25 -17 -9 -12 -16 -19 -16 -15 0 4
-9 3 -20 -3 -11 -6 -18 -15 -15 -20 3 -6 -1 -7 -9 -4 -11 4 -16 0 -16 -11 0
-9 -6 -15 -12 -12 -7 2 -21 -5 -30 -16 -10 -11 -18 -16 -18 -11 0 5 -7 0 -15
-10 -8 -11 -15 -16 -15 -11 0 4 -11 -4 -24 -18 -13 -14 -26 -24 -28 -21 -3 2
-17 -7 -32 -21 -15 -14 -29 -25 -31 -25 -2 0 -16 -11 -31 -25 -14 -13 -30 -23
-34 -20 -4 3 -10 -4 -13 -15 -3 -11 -12 -20 -21 -20 -9 0 -16 -4 -16 -10 0 -5
-7 -10 -16 -10 -8 0 -12 -4 -9 -10 3 -5 1 -10 -4 -10 -6 0 -19 -8 -30 -17 -10
-10 -31 -27 -45 -38 -15 -11 -37 -29 -49 -40 -12 -11 -25 -19 -29 -18 -5 2 -8
-5 -8 -14 0 -9 -3 -14 -6 -10 -4 3 -21 -9 -39 -28 -18 -18 -35 -31 -38 -28 -3
2 -8 -5 -12 -16 -3 -12 -13 -21 -21 -21 -8 0 -14 -5 -14 -11 0 -5 -5 -7 -12
-3 -7 4 -8 3 -4 -5 4 -7 -2 -15 -16 -20 -13 -4 -22 -11 -20 -15 1 -3 -1 -6 -4
-5 -4 0 -15 -12 -25 -28 -10 -15 -19 -24 -19 -20 0 5 -25 -17 -55 -48 -30 -30
-55 -60 -55 -65 0 -6 -4 -9 -9 -7 -11 3 -91 -80 -91 -94 0 -6 -5 -7 -10 -4 -6
3 -13 -1 -16 -9 -3 -9 -11 -13 -18 -9 -6 3 -8 3 -4 -2 10 -11 -11 -47 -23 -40
-5 4 -9 2 -9 -4 0 -5 -25 -36 -55 -67 -30 -32 -55 -62 -55 -66 0 -4 -7 -8 -15
-8 -8 0 -14 -3 -14 -7 3 -18 -2 -34 -8 -30 -5 3 -14 -1 -21 -9 -7 -8 -10 -14
-6 -14 4 0 -5 -11 -20 -25 -14 -13 -26 -28 -26 -33 0 -6 -7 -12 -15 -16 -8 -3
-15 -13 -15 -21 0 -9 -4 -14 -9 -10 -5 3 -12 -4 -16 -15 -3 -11 -10 -20 -15
-20 -5 0 -12 -9 -15 -20 -4 -11 -11 -18 -16 -15 -5 4 -9 1 -9 -5 0 -6 -6 -18
-13 -25 -29 -34 -37 -45 -31 -45 4 0 -9 -15 -29 -34 -20 -18 -34 -36 -32 -38
2 -2 -7 -17 -20 -32 -14 -16 -25 -33 -25 -38 0 -5 -5 -6 -10 -3 -6 4 -9 2 -8
-3 3 -10 -14 -38 -44 -74 -10 -11 -15 -26 -11 -32 3 -6 2 -8 -2 -3 -9 7 -59
-60 -76 -101 -5 -14 -14 -20 -21 -16 -6 4 -8 3 -5 -3 4 -6 -2 -21 -13 -33 -11
-12 -17 -26 -15 -30 3 -4 -2 -11 -11 -14 -8 -3 -13 -9 -11 -13 5 -9 -18 -34
-25 -28 -2 2 -4 -5 -5 -15 -1 -11 -11 -29 -22 -42 -12 -12 -21 -28 -21 -35 0
-7 -5 -13 -11 -13 -5 0 -7 -5 -4 -10 3 -6 -1 -13 -9 -16 -9 -3 -13 -10 -10
-15 3 -5 0 -9 -6 -9 -6 0 -8 -4 -5 -10 3 -5 2 -10 -4 -10 -6 0 -13 -11 -17
-25 -3 -14 -10 -25 -16 -25 -5 0 -6 -4 -3 -10 3 -5 1 -10 -5 -10 -6 0 -8 -4
-5 -10 3 -5 2 -10 -4 -10 -6 0 -13 -11 -17 -25 -3 -14 -10 -22 -15 -19 -5 3
-9 -4 -9 -15 0 -11 -5 -23 -10 -26 -6 -4 -8 -11 -5 -16 4 -5 -1 -9 -10 -9 -9
0 -13 -5 -10 -10 3 -6 -2 -22 -13 -38 -21 -30 -36 -63 -34 -74 1 -5 -2 -8 -6
-8 -5 0 -19 -25 -31 -55 -13 -30 -27 -55 -33 -55 -5 0 -7 -4 -4 -9 3 -5 -6
-25 -19 -46 -14 -20 -21 -34 -15 -30 5 3 10 1 10 -4 0 -6 -5 -11 -11 -11 -6 0
-8 -7 -5 -16 3 -9 2 -12 -4 -9 -6 4 -13 -7 -16 -24 -4 -17 -10 -28 -15 -25 -5
3 -9 -6 -9 -20 0 -14 -5 -26 -12 -26 -6 0 -9 -3 -5 -6 3 -4 -1 -20 -9 -36 -8
-16 -12 -32 -9 -37 2 -5 -2 -11 -10 -15 -8 -3 -15 -11 -15 -18 0 -7 -7 -26
-15 -42 -8 -15 -12 -32 -9 -37 3 -5 0 -9 -6 -9 -6 0 -8 -4 -5 -10 3 -5 1 -10
-6 -10 -7 0 -9 -3 -6 -7 4 -3 0 -17 -8 -30 -9 -13 -13 -23 -9 -23 4 0 1 -7 -6
-15 -7 -8 -9 -15 -5 -15 4 0 2 -7 -5 -15 -7 -9 -10 -18 -7 -21 3 -4 -1 -13 -9
-21 -8 -8 -12 -19 -9 -24 4 -5 2 -9 -4 -9 -5 0 -8 -9 -6 -20 2 -11 0 -20 -6
-20 -5 0 -8 -3 -8 -7 1 -5 0 -11 -1 -15 -4 -13 -7 -27 -9 -39 0 -5 -5 -7 -11
-4 -5 3 -7 0 -4 -9 3 -8 2 -21 -2 -28 -5 -7 -9 -16 -10 -20 -1 -5 -3 -10 -4
-13 -1 -3 -3 -15 -4 -27 -1 -13 -7 -22 -13 -21 -6 1 -9 -6 -6 -17 3 -11 0 -27
-6 -34 -7 -8 -13 -30 -14 -49 -1 -19 -5 -33 -8 -31 -7 4 -22 -51 -22 -78 0
-10 -4 -18 -9 -18 -6 0 -8 -7 -4 -15 3 -8 1 -15 -4 -15 -5 0 -7 -7 -4 -15 4
-8 2 -15 -3 -15 -5 0 -9 -8 -10 -17 -3 -43 -8 -63 -15 -63 -4 0 -5 -9 -3 -20
2 -11 0 -22 -5 -25 -5 -3 -7 -12 -3 -20 3 -8 1 -15 -5 -15 -6 0 -9 -8 -8 -17
2 -9 -3 -36 -10 -60 -7 -24 -10 -43 -7 -43 4 0 2 -5 -4 -11 -6 -6 -9 -18 -6
-25 3 -8 -1 -14 -8 -14 -11 0 -11 -3 1 -10 8 -5 10 -10 3 -10 -6 0 -10 -8 -8
-17 1 -10 0 -22 -4 -28 -7 -12 -10 -29 -15 -81 -2 -23 -7 -47 -10 -53 -4 -6
-4 -15 -1 -21 3 -6 2 -10 -2 -10 -9 0 -10 -8 -16 -77 -1 -18 -6 -33 -12 -33
-5 0 -3 -5 5 -10 8 -5 10 -10 5 -10 -6 0 -11 -8 -12 -17 -6 -61 -11 -99 -13
-103 -1 -3 -1 -16 0 -29 1 -17 -2 -21 -12 -16 -10 6 -10 5 -1 -5 9 -9 9 -19 2
-33 -9 -15 -8 -18 2 -12 8 6 10 4 5 -4 -9 -14 -15 -50 -19 -106 -1 -22 -6 -46
-10 -52 -5 -7 -4 -13 1 -13 5 0 9 -7 9 -15 0 -8 -3 -15 -6 -15 -4 0 -6 -19 -6
-42 1 -24 -3 -51 -7 -60 -4 -9 -4 -19 1 -22 9 -6 3 -55 -10 -72 -5 -6 -6 -14
-2 -18 9 -9 11 -66 3 -66 -9 0 -6 -32 4 -48 4 -6 3 -12 -2 -12 -6 0 -7 -14 -2
-35 4 -19 4 -37 0 -40 -6 -4 -6 -30 0 -60 1 -5 1 -13 0 -17 -7 -21 -4 -148 3
-148 5 0 5 -5 1 -12 -11 -17 -12 -68 -2 -74 5 -3 5 -10 1 -17 -8 -13 -11 -57
-3 -57 3 0 6 -27 7 -60 1 -40 -3 -60 -10 -60 -8 0 -8 -3 1 -8 7 -5 13 -35 15
-75 1 -36 6 -69 10 -73 4 -4 2 -13 -4 -21 -8 -8 -8 -13 -1 -13 6 0 9 -12 7
-27 -2 -16 2 -36 7 -47 7 -13 7 -16 -1 -12 -6 4 -11 2 -11 -3 0 -6 4 -11 10
-11 5 0 7 -6 4 -14 -3 -8 -1 -23 4 -33 7 -12 7 -25 1 -36 -6 -9 -6 -17 -2 -17
8 0 13 -37 16 -107 1 -18 4 -33 7 -33 4 0 7 -6 7 -12 1 -7 2 -34 4 -60 1 -27
6 -48 10 -48 4 0 7 -12 5 -27 -1 -16 2 -41 7 -58 5 -16 10 -43 12 -60 1 -16 4
-32 5 -35 1 -3 2 -9 1 -14 -1 -4 4 -15 11 -24 11 -13 11 -14 -1 -7 -11 6 -12
5 -5 -6 4 -8 10 -21 12 -29 1 -8 5 -24 7 -35 2 -11 7 -39 11 -62 4 -24 10 -40
15 -37 5 3 6 -2 3 -10 -3 -8 -1 -24 6 -35 8 -16 8 -21 -1 -21 -8 0 -8 -4 1
-15 6 -8 9 -19 5 -25 -3 -5 -2 -10 3 -10 5 0 12 -12 15 -27 3 -16 8 -37 10
-48 3 -11 6 -28 6 -38 1 -12 5 -16 13 -11 9 5 9 2 -1 -9 -10 -13 -10 -17 -1
-17 7 0 10 -8 7 -20 -3 -10 -1 -20 4 -22 8 -3 11 -12 25 -75 2 -12 9 -34 14
-48 5 -14 6 -25 2 -25 -4 0 -2 -4 3 -8 9 -6 26 -54 38 -108 2 -6 11 -23 21
-39 10 -15 12 -24 5 -20 -9 6 -10 3 -5 -11 4 -10 8 -23 9 -29 1 -5 6 -13 11
-17 5 -3 11 -17 13 -29 2 -13 7 -26 11 -29 4 -3 7 -12 7 -20 -1 -8 3 -21 8
-27 5 -7 7 -13 3 -13 -4 0 0 -10 8 -22 8 -13 15 -26 15 -31 1 -4 7 -22 15 -40
7 -19 17 -45 21 -58 4 -13 15 -33 24 -43 10 -12 11 -16 2 -11 -9 5 -9 1 2 -16
9 -13 16 -28 16 -34 1 -5 7 -18 15 -27 11 -12 12 -18 3 -22 -9 -3 -9 -5 1 -5
6 -1 12 -8 12 -16 0 -8 5 -15 11 -15 5 0 8 -4 5 -8 -3 -5 1 -20 9 -35 7 -14
11 -28 7 -31 -3 -3 1 -6 8 -6 7 0 11 -3 7 -6 -3 -4 1 -13 9 -21 8 -8 12 -19 9
-24 -4 -5 -1 -9 5 -9 6 0 8 -5 5 -10 -3 -6 1 -13 9 -16 9 -3 13 -10 10 -16 -3
-5 2 -18 11 -28 9 -10 18 -25 19 -33 3 -20 39 -91 49 -95 4 -2 5 -8 1 -13 -3
-5 1 -12 10 -15 8 -3 12 -12 9 -20 -3 -7 2 -16 10 -20 9 -3 13 -12 10 -20 -3
-8 0 -14 7 -14 6 0 8 -5 5 -10 -3 -5 -1 -10 4 -10 6 0 11 -7 11 -15 0 -8 3
-15 8 -15 4 0 12 -11 19 -25 8 -19 8 -24 0 -19 -7 3 -4 -1 6 -9 9 -8 17 -19
17 -26 0 -6 5 -11 11 -11 5 0 7 -5 4 -10 -3 -5 -1 -10 4 -10 6 0 11 -7 11 -15
0 -9 9 -25 20 -37 11 -12 20 -28 20 -35 0 -7 5 -13 11 -13 5 0 7 -5 4 -10 -3
-6 1 -13 9 -16 9 -3 16 -14 16 -25 0 -10 8 -22 17 -28 10 -5 15 -12 11 -16 -3
-4 1 -15 10 -25 34 -38 42 -50 42 -65 0 -8 8 -15 17 -15 9 0 13 -3 10 -6 -4
-4 2 -19 13 -34 11 -15 16 -30 12 -34 -4 -4 0 -6 8 -4 9 2 16 -6 18 -19 2 -13
10 -23 19 -23 9 0 13 -3 10 -6 -4 -4 7 -24 23 -44 17 -21 30 -43 30 -48 0 -6
8 -16 18 -21 9 -6 14 -11 10 -11 -8 0 12 -27 49 -65 12 -13 20 -25 17 -27 -2
-3 13 -23 34 -45 21 -23 36 -47 34 -53 -3 -8 0 -10 7 -6 6 4 11 1 11 -8 0 -8
8 -20 18 -25 9 -6 14 -11 10 -11 -4 0 6 -13 22 -28 16 -16 27 -32 23 -35 -3
-4 1 -7 11 -7 9 0 14 -4 11 -10 -3 -5 -1 -10 5 -10 6 0 8 -5 4 -12 -5 -7 -3
-8 5 -4 8 5 14 0 18 -13 3 -12 12 -21 19 -21 8 0 13 -3 13 -7 -3 -20 2 -34 11
-28 5 3 10 2 10 -3 0 -4 10 -19 23 -32 12 -14 21 -28 19 -32 -1 -5 3 -8 9 -8
6 0 17 -7 25 -15 9 -8 13 -15 10 -15 -3 0 2 -9 11 -19 9 -11 21 -17 26 -14 6
3 7 1 3 -5 -4 -6 2 -17 14 -24 11 -7 20 -19 20 -26 0 -7 4 -10 10 -7 5 3 10 2
10 -2 0 -13 57 -73 69 -73 6 0 10 -4 9 -8 -4 -11 160 -172 174 -172 6 0 9 -3
5 -6 -8 -8 18 -34 33 -34 6 0 8 -4 5 -10 -3 -5 0 -10 8 -10 7 0 20 -11 27 -25
7 -13 17 -22 22 -19 4 3 8 0 8 -5 0 -6 7 -11 16 -11 8 0 13 -3 11 -7 -3 -5 1
-14 9 -21 8 -7 14 -11 14 -9 0 2 23 -18 52 -44 28 -27 60 -51 70 -55 10 -3 16
-9 13 -14 -3 -5 5 -14 17 -21 13 -7 30 -20 39 -31 9 -10 20 -18 25 -18 5 0 16
-9 24 -19 7 -11 17 -18 22 -15 4 3 8 -2 8 -11 0 -9 5 -13 10 -10 6 3 13 -1 16
-9 3 -9 11 -16 18 -16 6 0 18 -9 26 -19 7 -11 17 -18 22 -15 4 3 8 1 8 -4 0
-6 16 -19 36 -31 19 -12 33 -25 29 -30 -3 -6 4 -8 15 -6 12 2 20 -1 20 -10 0
-11 18 -24 35 -25 3 0 13 -7 23 -16 37 -33 77 -64 84 -64 8 0 36 -21 63 -47 8
-7 18 -13 24 -13 6 0 20 -10 32 -22 12 -13 18 -16 14 -8 -4 8 6 2 23 -14 17
-15 35 -25 40 -22 6 3 13 -3 17 -14 4 -11 11 -18 16 -15 5 4 9 0 9 -7 0 -9 3
-9 10 2 8 13 10 12 10 -2 0 -10 5 -18 10 -18 19 0 25 -3 37 -19 7 -9 13 -12
13 -8 0 4 10 -1 22 -13 12 -11 30 -20 40 -20 10 0 18 -4 18 -9 0 -5 13 -14 30
-21 16 -7 27 -17 23 -23 -3 -5 -1 -7 5 -3 6 3 13 2 17 -4 4 -6 11 -8 16 -5 5
4 9 1 9 -4 0 -6 7 -11 15 -11 8 0 15 -4 15 -10 0 -5 9 -10 20 -10 11 0 23 -6
26 -14 3 -9 12 -12 21 -9 11 4 14 2 9 -5 -5 -8 0 -12 13 -12 10 0 21 -3 23 -7
5 -12 67 -43 84 -43 9 0 12 -4 9 -10 -3 -6 1 -7 9 -4 11 4 16 0 16 -11 0 -9 4
-13 10 -10 5 3 20 0 32 -7 13 -7 26 -11 31 -10 4 1 7 -2 7 -8 0 -5 9 -10 20
-10 11 0 20 -3 20 -7 0 -5 11 -13 25 -20 19 -8 24 -8 19 0 -3 7 1 4 10 -7 8
-10 19 -15 25 -11 6 3 11 1 11 -5 0 -7 7 -9 16 -6 9 3 12 2 9 -4 -4 -6 7 -13
24 -16 17 -4 31 -11 31 -16 0 -5 6 -8 13 -5 6 2 18 -3 25 -12 8 -9 10 -10 7
-3 -6 11 -3 11 16 0 13 -7 27 -17 30 -22 4 -5 12 -5 18 -2 6 4 14 1 17 -8 3
-8 14 -13 25 -11 10 2 19 -1 19 -6 0 -6 4 -7 10 -4 5 3 10 1 10 -4 0 -6 11
-11 25 -11 14 0 25 -5 25 -11 0 -6 7 -9 15 -5 8 3 15 1 15 -5 0 -6 5 -7 10 -4
6 3 10 1 10 -4 0 -6 8 -11 18 -11 9 0 30 -7 46 -15 15 -8 32 -12 37 -9 5 3 9
0 9 -6 0 -7 7 -9 15 -6 9 3 18 -1 22 -9 4 -13 8 -13 21 -3 9 7 13 8 9 2 -4 -6
13 -16 44 -24 28 -8 52 -18 55 -22 3 -4 15 -8 28 -8 12 0 27 -5 34 -12 7 -7
12 -9 12 -5 0 3 19 -1 43 -9 23 -9 50 -17 60 -17 10 -1 22 -8 26 -16 6 -9 10
-10 16 -2 5 9 10 9 21 0 8 -6 17 -9 20 -6 4 3 13 0 20 -8 8 -8 21 -12 29 -9 9
4 15 0 15 -7 0 -11 3 -11 10 1 7 12 10 12 10 1 0 -7 6 -11 15 -7 8 3 15 1 15
-4 0 -5 7 -7 15 -4 8 4 15 2 15 -4 0 -6 8 -9 18 -7 9 1 30 -4 46 -12 22 -12
26 -12 20 -1 -6 10 -4 10 9 -1 9 -7 17 -10 17 -7 0 4 10 1 23 -6 12 -6 29 -12
37 -13 8 -1 25 -2 38 -3 15 -1 21 -6 16 -14 -5 -7 -3 -8 7 -2 21 13 39 14 39
2 0 -6 7 -8 15 -4 8 3 15 2 15 -3 0 -5 11 -7 25 -6 14 2 27 -1 31 -6 8 -14 26
-11 18 3 -4 7 2 5 13 -5 11 -9 22 -14 26 -11 3 4 14 3 24 -1 18 -8 47 -12 114
-18 19 -2 40 -7 46 -10 7 -4 36 -9 65 -12 29 -2 53 -4 53 -5 0 -4 45 -9 88
-11 26 -2 47 -5 47 -9 0 -3 17 -6 38 -7 20 -1 66 -4 102 -7 36 -3 97 -8 135
-11 39 -3 99 -7 135 -10 85 -7 82 -7 105 -2 11 2 26 -1 34 -7 11 -8 15 -8 19
2 3 10 7 10 18 1 11 -9 14 -9 14 0 0 7 5 9 12 5 16 -10 168 -12 168 -2 0 5 8
5 18 0 19 -10 72 -9 90 2 7 4 12 3 12 -1 0 -7 49 -9 58 -3 7 6 49 3 60 -4 6
-4 12 -3 12 3 0 10 31 8 49 -4 5 -3 12 -1 15 4 4 5 17 8 31 6 14 -1 25 1 25 4
0 3 36 6 81 6 44 0 83 4 86 9 3 4 9 2 14 -5 5 -8 9 -9 9 -3 0 6 16 10 36 9 19
0 37 2 39 5 5 8 37 6 52 -3 6 -4 16 0 23 8 9 11 17 12 32 4 15 -8 19 -8 13 1
-4 7 -1 11 6 9 8 -1 33 -1 57 0 32 1 41 4 36 14 -6 9 -5 9 8 0 8 -7 18 -10 22
-6 3 4 14 8 24 8 72 7 88 11 94 20 5 6 8 5 8 -4 0 -11 3 -11 17 0 10 9 14 9
10 2 -5 -8 1 -8 20 2 17 9 31 11 38 5 7 -6 16 -5 24 3 11 11 44 17 94 18 9 0
17 4 17 8 0 4 14 7 30 6 17 -1 30 2 30 6 0 5 7 6 15 3 9 -4 15 0 15 7 0 11 3
11 10 -1 5 -8 10 -10 10 -4 0 11 13 14 63 15 15 1 27 4 27 8 0 6 17 10 58 13
6 1 12 4 12 7 0 4 14 7 31 7 17 1 34 6 38 11 3 5 13 8 21 8 8 -1 19 1 25 4 5
3 16 6 25 7 20 3 55 12 55 14 0 1 7 3 15 5 42 8 136 38 144 45 5 5 15 6 23 3
7 -3 23 3 33 12 16 14 20 15 20 4 0 -12 2 -12 9 0 5 7 13 11 19 7 6 -3 12 -1
14 4 2 6 13 12 26 13 12 0 22 5 22 10 0 4 5 5 10 2 6 -3 10 0 10 7 0 9 3 9 10
-2 7 -11 10 -11 10 -2 0 7 5 10 10 7 6 -3 10 -1 10 5 0 6 5 8 11 4 6 -3 15 -1
19 6 4 6 19 13 34 13 14 1 26 5 26 8 0 3 19 12 43 18 23 7 47 17 54 23 7 5 17
7 23 3 5 -3 10 -1 10 5 0 6 4 9 9 5 5 -3 12 -1 16 5 3 5 14 10 25 10 10 0 21
7 24 16 3 8 10 13 15 10 5 -3 26 2 47 11 22 9 42 16 47 15 4 -1 7 3 7 9 0 5 4
8 9 4 5 -3 12 -1 16 5 4 6 11 8 16 5 5 -4 9 -1 9 5 0 7 7 10 15 6 8 -3 15 -2
15 2 0 4 12 16 27 26 14 11 23 14 19 8 -4 -7 -2 -12 3 -12 6 0 11 4 11 10 0 5
18 14 40 20 22 6 40 15 40 20 0 6 3 10 8 9 15 -2 52 14 52 23 0 5 5 6 10 3 6
-3 10 -1 10 6 0 7 3 10 6 6 3 -3 22 3 41 14 19 11 39 17 44 13 5 -3 8 0 7 7
-2 7 2 13 9 14 7 0 21 8 32 17 11 9 22 14 25 11 2 -3 18 4 34 16 17 12 33 21
37 21 4 0 14 8 22 18 8 9 12 12 9 5 -5 -8 0 -8 18 0 13 7 22 15 20 19 -3 5 3
8 13 8 10 0 29 9 43 20 14 11 31 20 38 20 6 0 12 5 12 11 0 5 4 8 9 5 5 -4 11
-3 13 1 4 10 106 73 118 73 5 0 10 4 12 9 2 5 9 11 17 13 8 2 24 11 35 20 41
35 53 43 66 46 7 2 21 13 32 25 11 12 17 16 13 9 -3 -6 -2 -12 3 -12 6 0 12 7
16 15 3 8 13 15 21 15 9 0 13 5 10 10 -6 9 8 14 28 11 4 0 7 6 7 16 0 9 3 13
7 10 3 -4 17 3 30 15 13 12 23 19 23 15 0 -3 14 7 32 23 17 16 35 27 40 24 4
-3 8 2 8 10 0 9 3 15 8 14 13 -4 62 34 56 43 -3 5 -2 9 3 8 16 -3 53 14 48 21
-3 5 4 11 15 15 11 3 20 11 20 16 0 5 7 9 16 9 9 0 12 5 8 12 -5 8 -2 9 9 5
12 -4 17 -1 17 10 0 9 2 14 5 11 3 -3 19 6 34 21 78 71 100 89 105 84 3 -3 8
2 12 11 3 9 13 16 21 16 8 0 11 5 8 10 -3 6 -2 10 4 10 6 0 21 10 34 23 54 52
97 87 107 87 5 0 10 4 10 9 0 5 18 27 40 49 22 22 40 38 40 36 0 -2 31 27 69
65 38 38 72 67 75 64 3 -4 6 -1 6 6 0 19 52 71 63 64 6 -3 7 -1 3 6 -4 6 -1
14 8 17 8 3 18 14 21 25 4 11 11 17 16 14 5 -4 9 0 9 8 0 7 11 20 25 27 13 7
23 16 22 19 -1 4 15 23 36 44 20 21 37 45 37 53 0 8 4 13 9 10 5 -3 14 1 21 9
7 8 10 15 7 15 -3 0 6 13 21 28 15 15 31 26 36 23 5 -2 6 1 3 6 -4 6 6 24 21
41 15 16 43 47 61 68 19 21 28 34 20 29 -7 -4 1 6 19 23 17 17 32 36 32 41 0
6 5 11 10 11 6 0 9 4 8 8 -2 4 10 20 26 35 16 15 26 27 22 27 -4 0 0 7 8 16 9
8 13 20 10 26 -4 7 -2 8 5 4 6 -4 14 0 18 11 4 10 17 28 30 40 13 12 23 25 23
28 -1 21 1 26 8 21 5 -3 19 15 31 39 12 25 27 45 32 45 6 0 7 5 4 10 -3 6 1
13 9 16 9 3 16 10 16 16 0 5 7 16 15 25 8 8 13 19 10 24 -4 5 1 9 10 9 9 0 13
5 10 10 -3 6 -1 10 5 10 6 0 9 4 5 9 -3 6 1 13 9 18 8 4 24 27 36 51 12 23 26
42 32 42 5 0 7 4 4 9 -3 4 3 19 14 31 11 12 17 26 15 30 -3 4 2 11 11 14 8 3
13 10 10 15 -3 5 1 11 9 15 8 3 15 10 15 15 0 6 13 33 30 61 16 27 26 50 22
50 -4 0 1 5 11 11 9 6 15 14 12 20 -4 5 -1 9 6 9 7 0 9 3 6 7 -4 3 -1 13 7 22
8 9 16 23 18 31 2 8 9 21 16 28 7 8 9 18 6 24 -4 6 -2 8 3 5 12 -8 26 20 17
34 -3 5 2 9 11 9 9 0 14 4 11 9 -3 4 1 17 9 27 8 10 15 27 15 37 0 10 6 20 13
23 8 3 14 11 15 19 1 8 3 22 4 30 1 8 5 12 10 9 7 -5 12 10 9 29 0 4 4 7 10 7
5 0 8 4 4 9 -3 5 2 17 11 25 8 9 13 16 9 16 -3 0 1 10 10 23 8 13 12 27 8 30
-3 4 -2 7 4 7 9 0 16 16 25 57 1 5 8 14 15 21 7 8 11 18 8 23 -4 5 -1 9 4 9 6
0 11 9 11 20 0 11 4 20 8 20 7 0 11 15 14 57 1 7 6 11 12 10 6 -1 10 8 10 21
-1 12 3 22 8 22 5 0 6 5 3 10 -3 6 -1 10 5 10 6 0 8 5 5 10 -3 6 -2 10 3 10 5
0 9 10 8 23 0 12 4 21 10 20 6 -1 10 8 9 20 -1 12 2 25 7 28 5 3 10 16 11 27
1 12 5 22 10 22 5 0 7 7 3 15 -3 8 -1 15 5 15 6 0 7 5 4 10 -3 6 -1 10 5 10 6
0 9 4 6 8 -3 5 1 19 7 33 7 13 12 31 12 39 0 8 3 17 7 20 4 3 9 17 10 30 2 14
6 28 11 31 7 5 18 41 19 67 1 6 5 12 9 12 4 0 6 9 4 20 -2 11 0 20 4 20 4 0 8
6 9 13 0 6 6 30 12 52 14 51 16 57 23 75 4 8 9 26 11 40 3 14 5 25 6 25 1 0 3
7 5 15 2 8 7 26 10 40 3 14 8 34 10 45 6 30 13 60 15 63 2 1 4 11 5 22 1 11 4
23 5 28 2 4 4 12 5 17 2 6 4 12 5 15 5 15 11 47 11 63 0 9 6 17 12 17 7 0 6 4
-3 10 -11 7 -11 10 -2 10 7 0 10 5 7 10 -4 6 -1 18 7 27 11 14 11 16 -1 8 -11
-6 -12 -5 -5 6 9 15 15 35 16 59 0 8 5 21 11 28 6 8 5 12 -4 12 -9 0 -10 3 -3
8 6 4 10 17 9 29 -1 13 1 23 5 23 3 0 6 15 5 33 0 17 3 38 8 44 5 7 7 20 3 28
-3 8 -1 15 3 15 5 0 8 8 6 18 -1 9 2 23 8 30 6 8 6 12 -2 12 -7 0 -9 4 -6 10
6 10 15 56 19 100 1 14 4 30 7 35 3 6 5 27 4 48 0 20 3 37 8 37 4 0 3 9 -3 20
-6 11 -7 20 -3 20 5 0 8 15 8 33 0 17 1 36 4 41 3 8 11 119 14 216 1 25 6 51
11 59 6 10 6 16 -2 19 -8 2 -9 9 -2 22 6 11 6 21 1 24 -7 5 -8 41 -1 41 6 0 5
74 -1 97 -4 14 -4 29 -1 33 11 11 8 199 -3 207 -6 5 -5 8 3 8 9 0 10 5 4 18
-5 9 -6 26 -1 37 10 26 11 37 1 31 -10 -6 -9 66 2 83 6 9 5 12 -2 7 -7 -4 -10
13 -9 54 1 33 0 60 -3 60 -3 0 -6 21 -7 48 -3 81 -8 147 -14 157 -2 6 -4 27
-4 48 1 20 -4 37 -10 37 -5 0 -3 5 5 10 8 5 10 10 5 10 -6 0 -11 12 -12 28 -1
46 -9 101 -15 107 -3 3 -4 19 -2 35 2 17 -1 30 -6 30 -6 0 -6 9 0 25 6 16 6
27 -2 31 -7 5 -8 3 -3 -6 5 -9 4 -11 -4 -6 -9 6 -9 11 0 23 9 10 9 17 2 21 -5
4 -9 17 -8 30 1 13 -2 25 -7 28 -5 3 -6 14 -3 25 4 10 3 19 -2 19 -4 0 -9 15
-10 33 -3 31 -10 72 -13 72 -1 0 -3 9 -5 20 -2 11 -6 31 -9 45 -3 14 -8 44
-12 67 -4 24 -9 41 -13 39 -3 -2 -7 6 -7 17 -3 59 -10 97 -16 97 -5 0 -8 10
-8 23 0 13 -6 29 -12 36 -11 11 -10 12 2 6 12 -7 13 -6 3 6 -6 8 -14 31 -18
52 -4 20 -11 39 -15 42 -5 3 -6 14 -3 25 3 11 1 20 -4 20 -5 0 -10 6 -11 13
-1 21 -12 65 -22 92 -5 14 -6 25 -2 25 4 0 2 4 -3 8 -9 6 -26 54 -38 108 -2 6
-11 23 -21 39 -10 15 -12 24 -5 20 9 -6 10 -3 5 11 -4 10 -8 23 -9 29 -1 5 -9
15 -17 22 -8 7 -11 13 -6 13 4 0 1 12 -9 26 -11 18 -12 24 -4 18 12 -6 12 -5
0 9 -7 9 -10 17 -6 17 4 0 2 7 -5 15 -7 8 -10 15 -6 15 4 0 -2 12 -11 27 -10
15 -17 28 -15 30 1 2 -5 19 -13 39 -8 20 -15 40 -15 45 0 5 -5 9 -11 9 -5 0
-7 5 -4 11 4 5 -1 20 -12 31 -10 12 -12 18 -4 13 8 -5 7 2 -4 19 -10 15 -15
29 -12 32 3 4 -3 16 -14 27 -11 12 -17 27 -15 33 3 7 -2 18 -10 24 -8 7 -14
21 -14 31 0 10 -5 21 -10 24 -6 4 -8 11 -5 16 4 5 1 9 -6 9 -7 0 -10 3 -6 6 3
4 -1 13 -9 21 -8 8 -12 19 -9 24 4 5 1 9 -5 9 -6 0 -8 5 -5 10 3 6 -1 13 -9
16 -9 3 -13 10 -10 16 3 5 -2 18 -11 28 -9 10 -18 25 -19 33 -3 20 -39 91 -49
95 -4 2 -5 8 -1 13 3 5 -1 12 -10 15 -8 3 -12 12 -9 20 3 7 -2 16 -10 20 -9 3
-13 12 -10 20 3 8 0 14 -7 14 -6 0 -8 5 -5 10 3 6 1 10 -4 10 -6 0 -11 6 -11
14 0 8 -5 16 -10 18 -6 2 -12 13 -13 25 0 12 -5 19 -9 17 -4 -3 -10 7 -14 21
-3 14 -10 25 -16 25 -5 0 -6 5 -3 10 3 6 1 10 -4 10 -6 0 -11 7 -11 15 0 9 -9
25 -20 37 -11 12 -20 28 -20 35 0 7 -5 13 -11 13 -5 0 -7 5 -4 10 3 6 -1 13
-9 16 -9 3 -16 14 -16 25 0 10 -8 22 -17 28 -10 5 -15 12 -11 16 3 4 -1 15
-10 25 -34 38 -42 50 -42 65 0 8 -7 15 -15 15 -8 0 -15 3 -14 8 3 17 -14 51
-22 46 -5 -3 -9 4 -9 16 0 12 -4 18 -10 15 -5 -3 -10 3 -10 14 0 13 -7 21 -17
21 -9 0 -13 3 -10 6 4 4 -7 24 -23 44 -17 21 -30 43 -30 48 0 6 -8 16 -17 21
-10 6 -15 11 -11 11 8 0 -13 28 -52 68 -14 14 -23 28 -21 30 1 2 -6 15 -18 28
-12 13 -21 26 -21 29 0 3 -14 19 -30 37 -16 17 -30 35 -30 40 0 6 -13 22 -30
38 -16 15 -26 30 -23 34 3 3 -1 6 -11 6 -9 0 -14 5 -11 10 3 6 2 10 -3 10 -5
0 -15 11 -22 25 -7 13 -17 22 -22 19 -4 -3 -8 1 -8 8 0 8 -8 21 -17 30 -43 42
-67 68 -62 68 3 0 -17 24 -45 54 -28 30 -54 52 -59 49 -4 -2 -7 -1 -6 4 3 13
-12 43 -23 43 -5 0 -16 7 -24 15 -9 8 -13 15 -10 15 4 0 -11 17 -31 37 -21 20
-37 41 -35 47 2 6 1 8 -3 4 -3 -3 -44 32 -90 78 -46 46 -88 84 -94 84 -5 0
-13 9 -16 20 -3 11 -11 20 -16 20 -6 0 -28 18 -49 40 -21 22 -43 40 -49 40 -5
0 -13 9 -16 20 -3 11 -11 20 -16 20 -5 0 -23 12 -40 28 -17 15 -35 26 -40 25
-5 -2 -8 1 -6 6 1 5 -2 9 -7 9 -5 0 -16 12 -26 27 -10 15 -21 27 -26 27 -16 1
-44 25 -37 31 3 4 0 7 -8 7 -8 0 -31 16 -51 35 -21 18 -38 31 -38 28 0 -4 -7
2 -15 13 -8 10 -15 15 -15 11 0 -4 -15 7 -34 25 -18 18 -39 34 -45 36 -7 1
-24 14 -37 27 -14 14 -32 25 -40 25 -8 0 -12 5 -9 10 3 6 0 10 -9 10 -8 0 -16
4 -18 9 -1 5 -9 11 -17 13 -8 2 -26 15 -41 30 -15 15 -30 25 -33 21 -4 -3 -7
-1 -7 6 0 7 -4 9 -10 6 -5 -3 -10 -2 -10 3 0 5 -16 17 -35 28 -19 10 -35 23
-35 28 0 5 -3 6 -6 3 -4 -4 -14 1 -23 11 -9 9 -23 18 -31 20 -8 2 -19 10 -23
18 -5 8 -12 12 -18 9 -5 -4 -9 -1 -9 4 0 6 -7 11 -15 11 -8 0 -15 5 -15 10 0
6 -9 10 -20 10 -11 0 -20 7 -20 15 0 8 -3 15 -7 14 -16 -2 -53 14 -53 22 0 5
-7 9 -15 9 -8 0 -15 5 -15 10 0 6 -6 10 -14 10 -8 0 -22 7 -30 16 -9 8 -16 13
-16 9 0 -3 -13 3 -29 14 -16 12 -34 21 -40 21 -6 0 -11 5 -11 10 0 6 -6 10
-14 10 -7 0 -29 11 -49 24 -19 13 -38 22 -41 18 -3 -3 -6 0 -6 7 0 7 -4 10 -9
7 -5 -3 -20 4 -35 15 -14 11 -30 18 -35 15 -5 -3 -11 1 -15 9 -3 8 -12 15 -21
15 -8 0 -15 5 -15 11 0 5 -4 7 -10 4 -5 -3 -10 -2 -10 4 0 6 -7 8 -15 5 -8 -4
-15 -1 -15 7 0 7 -3 10 -6 6 -4 -3 -13 1 -21 9 -9 8 -21 13 -28 10 -8 -3 -16
2 -19 10 -3 9 -10 12 -16 9 -5 -3 -10 -1 -10 5 0 6 -4 8 -10 5 -5 -3 -10 -1
-10 4 0 6 -3 10 -7 9 -11 -2 -40 10 -94 38 -25 13 -49 21 -53 17 -3 -3 -6 -1
-6 5 0 7 -9 12 -20 12 -11 0 -20 5 -20 10 0 6 -3 9 -7 8 -5 -2 -28 6 -53 16
-25 11 -48 19 -52 18 -5 -1 -8 2 -8 8 0 5 -7 7 -15 4 -8 -4 -15 -1 -15 6 0 6
-4 9 -9 5 -5 -3 -12 -1 -16 5 -4 6 -11 8 -16 5 -5 -4 -9 -2 -9 3 0 5 -7 9 -15
10 -8 1 -22 3 -30 4 -8 1 -15 5 -15 10 0 4 -9 8 -20 8 -11 0 -20 5 -20 11 0 5
-4 8 -8 5 -5 -3 -21 1 -36 9 -14 8 -24 9 -20 4 4 -6 -5 -3 -19 6 -15 9 -31 14
-37 10 -5 -3 -10 -1 -10 5 0 7 -6 10 -14 7 -8 -3 -16 -2 -18 4 -3 8 -36 19
-65 21 -7 1 -13 4 -13 8 0 3 -8 6 -18 7 -30 2 -46 8 -58 19 -7 6 -23 10 -36 9
-12 -1 -28 5 -35 14 -8 11 -12 12 -13 3 0 -10 -5 -9 -22 2 -13 7 -31 12 -40
11 -10 -2 -18 1 -18 7 0 6 -7 8 -15 5 -8 -4 -17 -2 -20 2 -2 5 -25 12 -50 15
-24 4 -47 11 -50 17 -4 5 -11 9 -16 9 -6 0 -7 -4 -4 -10 3 -6 -1 -7 -9 -4 -9
3 -16 11 -16 16 0 6 -9 8 -20 5 -11 -3 -20 -1 -20 3 0 5 -9 7 -20 5 -11 -2
-22 0 -25 5 -3 4 -16 7 -30 5 -14 -1 -25 1 -25 6 0 4 -8 8 -17 8 -10 0 -31 3
-48 6 -16 4 -39 8 -50 10 -11 2 -20 4 -20 5 0 3 -41 10 -72 13 -18 1 -33 6
-33 10 0 5 -9 6 -19 2 -11 -3 -22 -2 -25 3 -3 5 -17 8 -31 7 -14 -2 -25 0 -25
4 0 4 -7 8 -15 8 -8 0 -15 -5 -15 -11 0 -8 -2 -8 -8 0 -11 17 -42 25 -42 11 0
-9 -2 -9 -8 -1 -4 7 -18 11 -32 10 -14 -1 -29 0 -35 3 -11 6 -65 13 -107 14
-16 1 -28 6 -28 12 0 5 -5 3 -10 -5 -5 -8 -10 -10 -10 -5 0 6 -17 11 -37 10
-21 0 -42 2 -48 4 -10 6 -76 11 -157 14 -27 1 -48 4 -48 7 0 3 -27 4 -60 3
-41 -1 -58 2 -54 9 5 7 2 8 -7 2 -17 -11 -89 -12 -83 -2 6 10 -5 9 -31 -1 -11
-5 -28 -4 -37 1 -13 6 -18 5 -18 -4 0 -8 -3 -9 -8 -3 -8 11 -196 14 -207 3 -4
-3 -19 -3 -33 1 -23 6 -97 7 -97 1 0 -7 -36 -6 -41 1 -3 5 -13 5 -25 -1 -13
-7 -19 -7 -19 0 0 12 -13 13 -24 3z"/>
</g>
</svg>
